<svg width="40" height="40" fill="none" xmlns="http://www.w3.org/2000/svg"><path d="M9.253.059c2.519 0 4.861 1 6.618 2.764l5.388 5.412.176-.706a9.978 9.978 0 0 1 3.221-5.353A11.598 11.598 0 0 1 27.409.588C28.462.235 29.517 0 30.628 0c2.519 0 4.861 1 6.619 2.765A9.468 9.468 0 0 1 40 9.412V32c0 .059 0 .176-.059.235v.118c0 .059 0 .118-.058.176v.413c0 .058 0 .117-.059.117V33.176c-.058.118-.058.236-.117.353 0 .06-.058.118-.058.118l-.176.53v.058c-.059.118-.059.177-.117.294v.06s0 .058-.059.058c0 .059-.058.118-.058.177 0 0 0 .058-.059.058 0 0 0 .06-.059.06 0 .058-.058.117-.058.117s0 .059-.059.059c0 0 0 .058-.058.058-.059.118-.117.177-.176.295-.41.647-.878 1.294-1.405 1.823-.352.353-.762.706-1.23 1.059-.645.47-1.347.823-2.109 1.118-.117.058-.234.058-.351.117h-.059c-.117.06-.234.06-.351.118h-.059c-.117.059-.234.059-.35.059a8.585 8.585 0 0 1-2.11.235H9.37C4.217 40 0 35.765 0 30.588c0-2.53.996-4.882 2.753-6.647a9.19 9.19 0 0 1 4.685-2.53l.703-.176-5.388-5.412c-3.631-3.646-3.631-9.647 0-13.352C4.393 1.059 6.735.059 9.253.059Zm2.636 6.823a3.718 3.718 0 0 0-2.636-1.117c-.995 0-1.932.412-2.635 1.117A3.75 3.75 0 0 0 5.505 9.53c0 1 .41 1.942 1.113 2.648l9.37 9.411h5.213V16.294l-8.082-8.117-1.23-1.295Zm22.43 2.589c0-1-.41-1.942-1.113-2.647a3.718 3.718 0 0 0-2.635-1.118c-.996 0-1.933.412-2.635 1.118a3.75 3.75 0 0 0-1.113 2.647v21.47c0 .941.351 1.883 1.054 2.588l.059.06a3.718 3.718 0 0 0 2.635 1.117h.41c.058 0 .176 0 .293-.059.117 0 .175-.059.293-.059.117 0 .175-.059.234-.059.527-.176.996-.529 1.405-.94.059-.06.118-.118.176-.236.352-.47.586-1 .703-1.588 0-.06 0-.177.059-.236v-.588l.175-21.47ZM9.253 27.353c-.995 0-1.932.294-2.635 1A3.75 3.75 0 0 0 5.505 31c0 1 .41 1.941 1.113 2.647a3.718 3.718 0 0 0 2.635 1.118h12.709l-.176-.53a9.767 9.767 0 0 1-.527-3.176v-3.706H9.253Z" fill="#fff"/><path fill="#fff" d="M36 36H25V4h11z"/><path fill="#fff" d="M27 37H5V26h22z"/><path fill="#fff" d="M19.465 27.348 1.733 9.312 9.577 1.6 27.31 19.637z"/></svg>